# xmcd
#
# Track frame offsets:
#	182
#	11330
#	37142
#	59455
#	84767
#	115600
#	132047
#	147747
#	163142
#	184212
#	204202
#	216657
#	233755
#	248335
#	263902
#
# Disc length: 3748 seconds
#
# Revision: 4
# Processed by: cddbd v1.4PL0 Copyright (c) Steve Scherf et al.
# Submitted via: CDmax 2.0
#
DISCID=cf0ea20f
DTITLE=Jimmy Witherspoon - Rocking' With Spoon
DYEAR=1992
DGENRE=Blues
TTITLE0=Good Rocking' Tonight
TTITLE1=When I been drinkin'
TTITLE2=Big Fine Girl
TTITLE3=No Rollin' Blues
TTITLE4=Ain't Nobody's Blues
TTITLE5=Times Gettin' Tougher Than Tough
TTITLE6=How Long
TTITLE7=Corrine, Corrina
TTITLE8=See, See Rider
TTITLE9=Roll 'em Pete
TTITLE10=Everyday
TTITLE11=(I'm Gonna Move To The) Outskirts of Town
TTITLE12=Kansas City
TTITLE13=Trouble in Mind
TTITLE14=St. Louis Blues
EXTD=1-4: Jimmy Witherspoon (vcl)  with Roy Eldridge (tp), Urbie Green (tb)
EXTD=, Woody Herman (cl), Ben Webster, Coleman Hawkins (ts),\nEarl Hines (p)
EXTD=, Vernon Alley (b), Mel Lewis (d) - 2 october 1959\n\n4-15: Jimmy Wither
EXTD=spoon(vcl)  with Ben Webster(ts), Gerry Mulligan (bs) Jimmy Rowles (p) L
EXTD=eroy Vinnegar (b), Mel Lewis(d) - prob. december 4 1959
EXTT0=(Roy Brown)
EXTT1=(Bill Broonzy)
EXTT2=(Jimmy Witherspoon)
EXTT3=(Jimmy Witherspoon)
EXTT4=(Jimmy Witherspoon)
EXTT5=(Jimmy Witherspoon)
EXTT6=(Leroy Carr)
EXTT7=(J. M. Williams/P. Chatman)
EXTT8=(Ma Rainey)
EXTT9=(Pete Johnson/Joe Turner)
EXTT10=(P. Chatman)
EXTT11=(W. Weldon/Jacobs)
EXTT12=(Jerry Leiber/Mike Stoller)
EXTT13=(R. M. Jones)
EXTT14=(W. C. Handy)
PLAYORDER=
